<?xml version="1.0" encoding="UTF-8" standalone="no"?>
<!DOCTYPE svg PUBLIC "-//W3C//DTD SVG 1.1//EN"
 "http://www.w3.org/Graphics/SVG/1.1/DTD/svg11.dtd">
<!-- Generated by graphviz version 2.38.0 (20140413.2041)
 -->
<!-- Title: graphname Pages: 1 -->
<svg width="1793pt" height="332pt"
 viewBox="0.00 0.00 1792.69 332.00" xmlns="http://www.w3.org/2000/svg" xmlns:xlink="http://www.w3.org/1999/xlink">
<g id="graph0" class="graph" transform="scale(1 1) rotate(0) translate(4 328)">
<title>graphname</title>
<polygon fill="white" stroke="none" points="-4,4 -4,-328 1788.69,-328 1788.69,4 -4,4"/>
<!-- INSTRUCTIONS&#45;SEMANTICS -->
<g id="node1" class="node"><title>INSTRUCTIONS&#45;SEMANTICS</title>
<polygon fill="grey" stroke="black" points="976.418,-95.5623 818.995,-108 661.573,-95.5623 721.703,-75.4377 916.288,-75.4377 976.418,-95.5623"/>
<text text-anchor="middle" x="818.995" y="-86.3" font-family="Times,serif" font-size="14.00">INSTRUCTIONS&#45;SEMANTICS</text>
</g>
<!-- X86_SEMANTICS -->
<g id="node30" class="node"><title>X86_SEMANTICS</title>
<ellipse fill="none" stroke="black" cx="960.995" cy="-18" rx="80.6858" ry="18"/>
<text text-anchor="middle" x="960.995" y="-14.3" font-family="Times,serif" font-size="14.00">X86_SEMANTICS</text>
</g>
<!-- INSTRUCTIONS&#45;SEMANTICS&#45;&gt;X86_SEMANTICS -->
<g id="edge48" class="edge"><title>INSTRUCTIONS&#45;SEMANTICS&#45;&gt;X86_SEMANTICS</title>
<path fill="none" stroke="black" d="M846.712,-75.3371C867.66,-65.0104 896.738,-50.6762 920.32,-39.0512"/>
<polygon fill="black" stroke="black" points="921.967,-42.1417 929.389,-34.5808 918.872,-35.8631 921.967,-42.1417"/>
</g>
<!-- SYNTAX -->
<g id="node2" class="node"><title>SYNTAX</title>
<polygon fill="grey" stroke="black" points="989.074,-239.562 931.995,-252 874.916,-239.562 896.719,-219.438 967.272,-219.438 989.074,-239.562"/>
<text text-anchor="middle" x="931.995" y="-230.3" font-family="Times,serif" font-size="14.00">SYNTAX</text>
</g>
<!-- X86&#45;CONFIG -->
<g id="node29" class="node"><title>X86&#45;CONFIG</title>
<ellipse fill="none" stroke="black" cx="1104" cy="-162" rx="61.99" ry="18"/>
<text text-anchor="middle" x="1104" y="-158.3" font-family="Times,serif" font-size="14.00">X86&#45;CONFIG</text>
</g>
<!-- SYNTAX&#45;&gt;X86&#45;CONFIG -->
<g id="edge16" class="edge"><title>SYNTAX&#45;&gt;X86&#45;CONFIG</title>
<path fill="none" stroke="black" d="M965.567,-219.337C992.532,-208.363 1030.62,-192.863 1060.02,-180.898"/>
<polygon fill="black" stroke="black" points="1061.68,-183.999 1069.63,-176.988 1059.04,-177.516 1061.68,-183.999"/>
</g>
<!-- MAP -->
<g id="node3" class="node"><title>MAP</title>
<ellipse fill="none" stroke="black" stroke-dasharray="5,2" cx="586.995" cy="-306" rx="30.5947" ry="18"/>
<text text-anchor="middle" x="586.995" y="-302.3" font-family="Times,serif" font-size="14.00">MAP</text>
</g>
<!-- ASBTRACT&#45;SYNTAX -->
<g id="node23" class="node"><title>ASBTRACT&#45;SYNTAX</title>
<ellipse fill="none" stroke="black" cx="1102" cy="-234" rx="94.7833" ry="18"/>
<text text-anchor="middle" x="1102" y="-230.3" font-family="Times,serif" font-size="14.00">ASBTRACT&#45;SYNTAX</text>
</g>
<!-- MAP&#45;&gt;ASBTRACT&#45;SYNTAX -->
<g id="edge12" class="edge"><title>MAP&#45;&gt;ASBTRACT&#45;SYNTAX</title>
<path fill="none" stroke="black" d="M609.666,-293.695C614.917,-291.48 620.562,-289.409 625.995,-288 786.781,-246.298 833.275,-273.41 997.995,-252 1006.56,-250.886 1015.51,-249.605 1024.4,-248.256"/>
<polygon fill="black" stroke="black" points="1025.05,-251.697 1034.4,-246.709 1023.98,-244.78 1025.05,-251.697"/>
</g>
<!-- MINT&#45;WRAPPER&#45;SYNTAX -->
<g id="node24" class="node"><title>MINT&#45;WRAPPER&#45;SYNTAX</title>
<ellipse fill="none" stroke="black" cx="587.995" cy="-234" rx="116.979" ry="18"/>
<text text-anchor="middle" x="587.995" y="-230.3" font-family="Times,serif" font-size="14.00">MINT&#45;WRAPPER&#45;SYNTAX</text>
</g>
<!-- MAP&#45;&gt;MINT&#45;WRAPPER&#45;SYNTAX -->
<g id="edge26" class="edge"><title>MAP&#45;&gt;MINT&#45;WRAPPER&#45;SYNTAX</title>
<path fill="none" stroke="black" d="M587.243,-287.697C587.353,-279.983 587.485,-270.712 587.608,-262.112"/>
<polygon fill="black" stroke="black" points="591.108,-262.153 587.751,-252.104 584.108,-262.053 591.108,-262.153"/>
</g>
<!-- FLAG&#45;CHECKS&#45;SYNTAX -->
<g id="node25" class="node"><title>FLAG&#45;CHECKS&#45;SYNTAX</title>
<ellipse fill="none" stroke="black" cx="342.995" cy="-234" rx="109.681" ry="18"/>
<text text-anchor="middle" x="342.995" y="-230.3" font-family="Times,serif" font-size="14.00">FLAG&#45;CHECKS&#45;SYNTAX</text>
</g>
<!-- MAP&#45;&gt;FLAG&#45;CHECKS&#45;SYNTAX -->
<g id="edge37" class="edge"><title>MAP&#45;&gt;FLAG&#45;CHECKS&#45;SYNTAX</title>
<path fill="none" stroke="black" d="M563.53,-294.345C558.155,-292.096 552.424,-289.848 546.995,-288 504.203,-273.437 455.207,-260.587 415.96,-251.189"/>
<polygon fill="black" stroke="black" points="416.739,-247.777 406.202,-248.875 415.124,-254.588 416.739,-247.777"/>
</g>
<!-- MINT -->
<g id="node4" class="node"><title>MINT</title>
<ellipse fill="none" stroke="black" stroke-dasharray="5,2" cx="668.995" cy="-306" rx="33.5952" ry="18"/>
<text text-anchor="middle" x="668.995" y="-302.3" font-family="Times,serif" font-size="14.00">MINT</text>
</g>
<!-- MINT&#45;&gt;SYNTAX -->
<g id="edge10" class="edge"><title>MINT&#45;&gt;SYNTAX</title>
<path fill="none" stroke="black" d="M694.697,-294.128C700.341,-291.941 706.326,-289.773 711.995,-288 779.082,-267.022 797.735,-268.767 865.995,-252 872.635,-250.369 879.64,-248.608 886.506,-246.859"/>
<polygon fill="black" stroke="black" points="887.591,-250.195 896.409,-244.322 885.854,-243.414 887.591,-250.195"/>
</g>
<!-- MINT&#45;&gt;ASBTRACT&#45;SYNTAX -->
<g id="edge13" class="edge"><title>MINT&#45;&gt;ASBTRACT&#45;SYNTAX</title>
<path fill="none" stroke="black" d="M694.111,-293.851C699.895,-291.628 706.085,-289.514 711.995,-288 836.1,-256.198 871.2,-270.337 997.995,-252 1006.26,-250.805 1014.88,-249.496 1023.47,-248.151"/>
<polygon fill="black" stroke="black" points="1024.19,-251.581 1033.52,-246.56 1023.1,-244.667 1024.19,-251.581"/>
</g>
<!-- MINT&#45;&gt;MINT&#45;WRAPPER&#45;SYNTAX -->
<g id="edge23" class="edge"><title>MINT&#45;&gt;MINT&#45;WRAPPER&#45;SYNTAX</title>
<path fill="none" stroke="black" d="M651.817,-290.155C641.151,-280.937 627.21,-268.89 615.08,-258.406"/>
<polygon fill="black" stroke="black" points="617.277,-255.68 607.423,-251.789 612.7,-260.976 617.277,-255.68"/>
</g>
<!-- MINT&#45;&gt;FLAG&#45;CHECKS&#45;SYNTAX -->
<g id="edge36" class="edge"><title>MINT&#45;&gt;FLAG&#45;CHECKS&#45;SYNTAX</title>
<path fill="none" stroke="black" d="M643.518,-293.742C638.132,-291.63 632.431,-289.59 626.995,-288 590.518,-277.331 497.703,-260.72 428.036,-248.941"/>
<polygon fill="black" stroke="black" points="428.377,-245.45 417.934,-247.24 427.214,-252.352 428.377,-245.45"/>
</g>
<!-- MEMORY&#45;SYNTAX -->
<g id="node26" class="node"><title>MEMORY&#45;SYNTAX</title>
<ellipse fill="none" stroke="black" cx="1305" cy="-234" rx="89.8845" ry="18"/>
<text text-anchor="middle" x="1305" y="-230.3" font-family="Times,serif" font-size="14.00">MEMORY&#45;SYNTAX</text>
</g>
<!-- MINT&#45;&gt;MEMORY&#45;SYNTAX -->
<g id="edge3" class="edge"><title>MINT&#45;&gt;MEMORY&#45;SYNTAX</title>
<path fill="none" stroke="black" d="M694.055,-293.621C699.842,-291.409 706.048,-289.359 711.995,-288 926.603,-238.968 987.478,-278.66 1206,-252 1214.33,-250.983 1223.03,-249.747 1231.67,-248.41"/>
<polygon fill="black" stroke="black" points="1232.43,-251.834 1241.75,-246.802 1231.33,-244.921 1232.43,-251.834"/>
</g>
<!-- FLOAT -->
<g id="node5" class="node"><title>FLOAT</title>
<ellipse fill="none" stroke="black" stroke-dasharray="5,2" cx="297.995" cy="-306" rx="38.9931" ry="18"/>
<text text-anchor="middle" x="297.995" y="-302.3" font-family="Times,serif" font-size="14.00">FLOAT</text>
</g>
<!-- FLOAT&#45;LEMMAS -->
<g id="node22" class="node"><title>FLOAT&#45;LEMMAS</title>
<ellipse fill="none" stroke="black" cx="196.995" cy="-162" rx="80.6858" ry="18"/>
<text text-anchor="middle" x="196.995" y="-158.3" font-family="Times,serif" font-size="14.00">FLOAT&#45;LEMMAS</text>
</g>
<!-- FLOAT&#45;&gt;FLOAT&#45;LEMMAS -->
<g id="edge34" class="edge"><title>FLOAT&#45;&gt;FLOAT&#45;LEMMAS</title>
<path fill="none" stroke="black" d="M272.357,-292.292C256.323,-283.13 236.424,-269.339 223.995,-252 210.881,-233.704 204.043,-208.94 200.534,-190.18"/>
<polygon fill="black" stroke="black" points="203.966,-189.477 198.87,-180.188 197.061,-190.627 203.966,-189.477"/>
</g>
<!-- FLOAT&#45;&gt;MINT&#45;WRAPPER&#45;SYNTAX -->
<g id="edge24" class="edge"><title>FLOAT&#45;&gt;MINT&#45;WRAPPER&#45;SYNTAX</title>
<path fill="none" stroke="black" d="M331.83,-296.833C377.239,-285.872 458.999,-266.137 517.955,-251.906"/>
<polygon fill="black" stroke="black" points="519.047,-255.243 527.946,-249.495 517.404,-248.439 519.047,-255.243"/>
</g>
<!-- INT -->
<g id="node6" class="node"><title>INT</title>
<ellipse fill="none" stroke="black" stroke-dasharray="5,2" cx="973.995" cy="-306" rx="27" ry="18"/>
<text text-anchor="middle" x="973.995" y="-302.3" font-family="Times,serif" font-size="14.00">INT</text>
</g>
<!-- INT&#45;&gt;SYNTAX -->
<g id="edge8" class="edge"><title>INT&#45;&gt;SYNTAX</title>
<path fill="none" stroke="black" d="M964.465,-289.116C959.128,-280.221 952.366,-268.951 946.396,-259.001"/>
<polygon fill="black" stroke="black" points="949.346,-257.114 941.199,-250.34 943.343,-260.716 949.346,-257.114"/>
</g>
<!-- INT&#45;&gt;MINT&#45;WRAPPER&#45;SYNTAX -->
<g id="edge27" class="edge"><title>INT&#45;&gt;MINT&#45;WRAPPER&#45;SYNTAX</title>
<path fill="none" stroke="black" d="M953.465,-294.052C948.509,-291.763 943.153,-289.571 937.995,-288 913.971,-280.68 777.923,-261.099 682.708,-247.899"/>
<polygon fill="black" stroke="black" points="683.145,-244.426 672.76,-246.523 682.186,-251.36 683.145,-244.426"/>
</g>
<!-- INT&#45;&gt;MEMORY&#45;SYNTAX -->
<g id="edge4" class="edge"><title>INT&#45;&gt;MEMORY&#45;SYNTAX</title>
<path fill="none" stroke="black" d="M994.558,-294.154C999.512,-291.861 1004.86,-289.642 1010,-288 1020.46,-284.654 1145.5,-262.657 1229.4,-248.073"/>
<polygon fill="black" stroke="black" points="1230.16,-251.493 1239.41,-246.333 1228.96,-244.596 1230.16,-251.493"/>
</g>
<!-- STRING -->
<g id="node7" class="node"><title>STRING</title>
<ellipse fill="none" stroke="black" stroke-dasharray="5,2" cx="495.995" cy="-306" rx="42.4939" ry="18"/>
<text text-anchor="middle" x="495.995" y="-302.3" font-family="Times,serif" font-size="14.00">STRING</text>
</g>
<!-- STRING&#45;&gt;SYNTAX -->
<g id="edge9" class="edge"><title>STRING&#45;&gt;SYNTAX</title>
<path fill="none" stroke="black" d="M526.72,-293.608C533.336,-291.48 540.342,-289.467 546.995,-288 686.325,-257.272 725.68,-277.857 865.995,-252 873.195,-250.673 880.771,-248.995 888.119,-247.212"/>
<polygon fill="black" stroke="black" points="889.099,-250.574 897.942,-244.74 887.39,-243.786 889.099,-250.574"/>
</g>
<!-- STRING&#45;&gt;MINT&#45;WRAPPER&#45;SYNTAX -->
<g id="edge25" class="edge"><title>STRING&#45;&gt;MINT&#45;WRAPPER&#45;SYNTAX</title>
<path fill="none" stroke="black" d="M515.958,-289.811C528.125,-280.554 543.914,-268.54 557.609,-258.12"/>
<polygon fill="black" stroke="black" points="559.976,-260.717 565.815,-251.877 555.737,-255.147 559.976,-260.717"/>
</g>
<!-- STRING&#45;&gt;FLAG&#45;CHECKS&#45;SYNTAX -->
<g id="edge38" class="edge"><title>STRING&#45;&gt;FLAG&#45;CHECKS&#45;SYNTAX</title>
<path fill="none" stroke="black" d="M468.288,-292.324C445.817,-282.042 413.704,-267.35 387.616,-255.415"/>
<polygon fill="black" stroke="black" points="388.856,-252.133 378.306,-251.155 385.943,-258.498 388.856,-252.133"/>
</g>
<!-- COMMON&#45;MEM&#45;SYNTAX -->
<g id="node8" class="node"><title>COMMON&#45;MEM&#45;SYNTAX</title>
<ellipse fill="none" stroke="black" stroke-dasharray="5,2" cx="1669" cy="-306" rx="115.88" ry="18"/>
<text text-anchor="middle" x="1669" y="-302.3" font-family="Times,serif" font-size="14.00">COMMON&#45;MEM&#45;SYNTAX</text>
</g>
<!-- X86&#45;MEMORY -->
<g id="node28" class="node"><title>X86&#45;MEMORY</title>
<ellipse fill="none" stroke="black" cx="1667" cy="-90" rx="69.5877" ry="18"/>
<text text-anchor="middle" x="1667" y="-86.3" font-family="Times,serif" font-size="14.00">X86&#45;MEMORY</text>
</g>
<!-- COMMON&#45;MEM&#45;SYNTAX&#45;&gt;X86&#45;MEMORY -->
<g id="edge5" class="edge"><title>COMMON&#45;MEM&#45;SYNTAX&#45;&gt;X86&#45;MEMORY</title>
<path fill="none" stroke="black" d="M1668.84,-287.849C1668.49,-250.832 1667.67,-163.181 1667.25,-118.386"/>
<polygon fill="black" stroke="black" points="1670.75,-118.199 1667.16,-108.232 1663.75,-118.265 1670.75,-118.199"/>
</g>
<!-- COMMON&#45;MEM&#45;CONFIG -->
<g id="node9" class="node"><title>COMMON&#45;MEM&#45;CONFIG</title>
<ellipse fill="none" stroke="black" stroke-dasharray="5,2" cx="1423" cy="-306" rx="112.38" ry="18"/>
<text text-anchor="middle" x="1423" y="-302.3" font-family="Times,serif" font-size="14.00">COMMON&#45;MEM&#45;CONFIG</text>
</g>
<!-- COMMON&#45;MEM&#45;CONFIG&#45;&gt;X86&#45;CONFIG -->
<g id="edge17" class="edge"><title>COMMON&#45;MEM&#45;CONFIG&#45;&gt;X86&#45;CONFIG</title>
<path fill="none" stroke="black" d="M1424.55,-287.931C1425.36,-267.779 1423.32,-234.653 1404,-216 1372.04,-185.155 1252.88,-171.97 1174.7,-166.549"/>
<polygon fill="black" stroke="black" points="1174.64,-163.038 1164.43,-165.865 1174.17,-170.022 1174.64,-163.038"/>
</g>
<!-- COMMON -->
<g id="node10" class="node"><title>COMMON</title>
<ellipse fill="none" stroke="black" stroke-dasharray="5,2" cx="51.9954" cy="-306" rx="51.9908" ry="18"/>
<text text-anchor="middle" x="51.9954" y="-302.3" font-family="Times,serif" font-size="14.00">COMMON</text>
</g>
<!-- COMMON&#45;&gt;X86_SEMANTICS -->
<g id="edge50" class="edge"><title>COMMON&#45;&gt;X86_SEMANTICS</title>
<path fill="none" stroke="black" d="M46.8762,-287.87C35.1158,-244.594 11.5235,-130.184 70.9954,-72 99.2789,-44.3288 650.328,-27.0455 870.878,-21.2119"/>
<polygon fill="black" stroke="black" points="871.223,-24.7042 881.128,-20.9428 871.039,-17.7066 871.223,-24.7042"/>
</g>
<!-- X86&#45;SORT -->
<g id="node11" class="node"><title>X86&#45;SORT</title>
<ellipse fill="none" stroke="black" cx="1070" cy="-306" rx="51.1914" ry="18"/>
<text text-anchor="middle" x="1070" y="-302.3" font-family="Times,serif" font-size="14.00">X86&#45;SORT</text>
</g>
<!-- X86&#45;SORT&#45;&gt;SYNTAX -->
<g id="edge7" class="edge"><title>X86&#45;SORT&#45;&gt;SYNTAX</title>
<path fill="none" stroke="black" d="M1042.07,-290.834C1019.68,-279.478 988.222,-263.521 964.666,-251.572"/>
<polygon fill="black" stroke="black" points="966.245,-248.448 955.743,-247.046 963.078,-254.691 966.245,-248.448"/>
</g>
<!-- X86&#45;SORT&#45;&gt;ASBTRACT&#45;SYNTAX -->
<g id="edge11" class="edge"><title>X86&#45;SORT&#45;&gt;ASBTRACT&#45;SYNTAX</title>
<path fill="none" stroke="black" d="M1077.74,-288.055C1081.38,-280.091 1085.81,-270.411 1089.88,-261.51"/>
<polygon fill="black" stroke="black" points="1093.12,-262.825 1094.1,-252.275 1086.76,-259.915 1093.12,-262.825"/>
</g>
<!-- MEMORY&#45;SORT -->
<g id="node12" class="node"><title>MEMORY&#45;SORT</title>
<ellipse fill="none" stroke="black" cx="1216" cy="-306" rx="76.8869" ry="18"/>
<text text-anchor="middle" x="1216" y="-302.3" font-family="Times,serif" font-size="14.00">MEMORY&#45;SORT</text>
</g>
<!-- MEMORY&#45;SORT&#45;&gt;ASBTRACT&#45;SYNTAX -->
<g id="edge14" class="edge"><title>MEMORY&#45;SORT&#45;&gt;ASBTRACT&#45;SYNTAX</title>
<path fill="none" stroke="black" d="M1189.84,-288.941C1174.28,-279.385 1154.33,-267.134 1137.37,-256.723"/>
<polygon fill="black" stroke="black" points="1139.17,-253.721 1128.82,-251.471 1135.51,-259.686 1139.17,-253.721"/>
</g>
<!-- MEMORY&#45;SORT&#45;&gt;MEMORY&#45;SYNTAX -->
<g id="edge1" class="edge"><title>MEMORY&#45;SORT&#45;&gt;MEMORY&#45;SYNTAX</title>
<path fill="none" stroke="black" d="M1237.09,-288.411C1248.64,-279.324 1263.14,-267.922 1275.77,-257.989"/>
<polygon fill="black" stroke="black" points="1278.05,-260.646 1283.75,-251.713 1273.72,-255.144 1278.05,-260.646"/>
</g>
<!-- MINT&#45;WRAPPER&#45;SORT -->
<g id="node13" class="node"><title>MINT&#45;WRAPPER&#45;SORT</title>
<ellipse fill="none" stroke="black" cx="824.995" cy="-306" rx="103.982" ry="18"/>
<text text-anchor="middle" x="824.995" y="-302.3" font-family="Times,serif" font-size="14.00">MINT&#45;WRAPPER&#45;SORT</text>
</g>
<!-- MINT&#45;WRAPPER&#45;SORT&#45;&gt;MINT&#45;WRAPPER&#45;SYNTAX -->
<g id="edge28" class="edge"><title>MINT&#45;WRAPPER&#45;SORT&#45;&gt;MINT&#45;WRAPPER&#45;SYNTAX</title>
<path fill="none" stroke="black" d="M774.734,-290.155C738.032,-279.315 688.082,-264.562 649.078,-253.041"/>
<polygon fill="black" stroke="black" points="649.994,-249.662 639.412,-250.186 648.011,-256.376 649.994,-249.662"/>
</g>
<!-- MINT&#45;WRAPPER&#45;SORT&#45;&gt;MEMORY&#45;SYNTAX -->
<g id="edge2" class="edge"><title>MINT&#45;WRAPPER&#45;SORT&#45;&gt;MEMORY&#45;SYNTAX</title>
<path fill="none" stroke="black" d="M900.342,-293.495C912.911,-291.625 925.818,-289.734 937.995,-288 1056.98,-271.06 1087.2,-270.173 1206,-252 1213.84,-250.8 1222.02,-249.49 1230.18,-248.146"/>
<polygon fill="black" stroke="black" points="1230.79,-251.592 1240.08,-246.496 1229.64,-244.687 1230.79,-251.592"/>
</g>
<!-- LOADER -->
<g id="node14" class="node"><title>LOADER</title>
<ellipse fill="none" stroke="black" cx="1353" cy="-90" rx="46.2923" ry="18"/>
<text text-anchor="middle" x="1353" y="-86.3" font-family="Times,serif" font-size="14.00">LOADER</text>
</g>
<!-- LOADER&#45;&gt;X86_SEMANTICS -->
<g id="edge43" class="edge"><title>LOADER&#45;&gt;X86_SEMANTICS</title>
<path fill="none" stroke="black" d="M1319.17,-77.7091C1312.22,-75.6246 1304.91,-73.6031 1298,-72 1211.15,-51.8598 1109.92,-37.0805 1041.25,-28.3207"/>
<polygon fill="black" stroke="black" points="1041.3,-24.799 1030.94,-27.0194 1040.42,-31.744 1041.3,-24.799"/>
</g>
<!-- FETCH&#45;EXECUTE -->
<g id="node15" class="node"><title>FETCH&#45;EXECUTE</title>
<ellipse fill="none" stroke="black" cx="1498" cy="-90" rx="81.4863" ry="18"/>
<text text-anchor="middle" x="1498" y="-86.3" font-family="Times,serif" font-size="14.00">FETCH&#45;EXECUTE</text>
</g>
<!-- FETCH&#45;EXECUTE&#45;&gt;X86_SEMANTICS -->
<g id="edge44" class="edge"><title>FETCH&#45;EXECUTE&#45;&gt;X86_SEMANTICS</title>
<path fill="none" stroke="black" d="M1439.52,-77.3509C1429.04,-75.4366 1418.21,-73.5686 1408,-72 1281.18,-52.529 1133.19,-36.2344 1043.33,-27.0499"/>
<polygon fill="black" stroke="black" points="1043.5,-23.55 1033.2,-26.0199 1042.8,-30.5141 1043.5,-23.55"/>
</g>
<!-- ABSTRACT&#45;SEMANTICS -->
<g id="node16" class="node"><title>ABSTRACT&#45;SEMANTICS</title>
<ellipse fill="none" stroke="black" cx="1104" cy="-90" rx="109.681" ry="18"/>
<text text-anchor="middle" x="1104" y="-86.3" font-family="Times,serif" font-size="14.00">ABSTRACT&#45;SEMANTICS</text>
</g>
<!-- ABSTRACT&#45;SEMANTICS&#45;&gt;X86_SEMANTICS -->
<g id="edge45" class="edge"><title>ABSTRACT&#45;SEMANTICS&#45;&gt;X86_SEMANTICS</title>
<path fill="none" stroke="black" d="M1070.83,-72.7646C1050.33,-62.7282 1023.85,-49.769 1002.03,-39.0885"/>
<polygon fill="black" stroke="black" points="1003.52,-35.9189 992.998,-34.6658 1000.44,-42.206 1003.52,-35.9189"/>
</g>
<!-- FLAG&#45;CHECKS -->
<g id="node17" class="node"><title>FLAG&#45;CHECKS</title>
<ellipse fill="none" stroke="black" cx="571.995" cy="-90" rx="71.4873" ry="18"/>
<text text-anchor="middle" x="571.995" y="-86.3" font-family="Times,serif" font-size="14.00">FLAG&#45;CHECKS</text>
</g>
<!-- FLAG&#45;CHECKS&#45;&gt;X86_SEMANTICS -->
<g id="edge46" class="edge"><title>FLAG&#45;CHECKS&#45;&gt;X86_SEMANTICS</title>
<path fill="none" stroke="black" d="M624.661,-77.6562C634.084,-75.7094 643.821,-73.7514 652.995,-72 733.014,-56.7235 825.116,-41.1356 887.603,-30.8562"/>
<polygon fill="black" stroke="black" points="888.455,-34.2632 897.756,-29.1897 887.321,-27.3556 888.455,-34.2632"/>
</g>
<!-- VERIFICATION&#45;LEMMAS -->
<g id="node18" class="node"><title>VERIFICATION&#45;LEMMAS</title>
<ellipse fill="none" stroke="black" cx="193.995" cy="-90" rx="113.98" ry="18"/>
<text text-anchor="middle" x="193.995" y="-86.3" font-family="Times,serif" font-size="14.00">VERIFICATION&#45;LEMMAS</text>
</g>
<!-- VERIFICATION&#45;LEMMAS&#45;&gt;X86_SEMANTICS -->
<g id="edge47" class="edge"><title>VERIFICATION&#45;LEMMAS&#45;&gt;X86_SEMANTICS</title>
<path fill="none" stroke="black" d="M273.977,-77.1967C287.965,-75.3207 302.392,-73.5055 315.995,-72 515.315,-49.9417 750.229,-32.8789 874.218,-24.5681"/>
<polygon fill="black" stroke="black" points="874.664,-28.0462 884.409,-23.888 874.198,-21.0618 874.664,-28.0462"/>
</g>
<!-- INIT -->
<g id="node19" class="node"><title>INIT</title>
<ellipse fill="none" stroke="black" cx="1260" cy="-90" rx="28.6953" ry="18"/>
<text text-anchor="middle" x="1260" y="-86.3" font-family="Times,serif" font-size="14.00">INIT</text>
</g>
<!-- INIT&#45;&gt;X86_SEMANTICS -->
<g id="edge51" class="edge"><title>INIT&#45;&gt;X86_SEMANTICS</title>
<path fill="none" stroke="black" d="M1238.42,-78.0751C1233.44,-75.8401 1228.1,-73.6653 1223,-72 1162.06,-52.1355 1090.63,-38.2795 1037.75,-29.73"/>
<polygon fill="black" stroke="black" points="1038.19,-26.2563 1027.77,-28.143 1037.09,-33.1695 1038.19,-26.2563"/>
</g>
<!-- MINT&#45;WRAPPER -->
<g id="node20" class="node"><title>MINT&#45;WRAPPER</title>
<ellipse fill="none" stroke="black" cx="403.995" cy="-90" rx="78.7863" ry="18"/>
<text text-anchor="middle" x="403.995" y="-86.3" font-family="Times,serif" font-size="14.00">MINT&#45;WRAPPER</text>
</g>
<!-- MINT&#45;WRAPPER&#45;&gt;X86_SEMANTICS -->
<g id="edge52" class="edge"><title>MINT&#45;WRAPPER&#45;&gt;X86_SEMANTICS</title>
<path fill="none" stroke="black" d="M460.688,-77.3715C471.077,-75.4333 481.844,-73.5518 491.995,-72 626.419,-51.4528 783.651,-35.2728 877.631,-26.4326"/>
<polygon fill="black" stroke="black" points="878.017,-29.9118 887.648,-25.4956 877.365,-22.9422 878.017,-29.9118"/>
</g>
<!-- MINT&#45;LEMMAS -->
<g id="node21" class="node"><title>MINT&#45;LEMMAS</title>
<ellipse fill="none" stroke="black" cx="445.995" cy="-162" rx="75.2868" ry="18"/>
<text text-anchor="middle" x="445.995" y="-158.3" font-family="Times,serif" font-size="14.00">MINT&#45;LEMMAS</text>
</g>
<!-- MINT&#45;LEMMAS&#45;&gt;VERIFICATION&#45;LEMMAS -->
<g id="edge32" class="edge"><title>MINT&#45;LEMMAS&#45;&gt;VERIFICATION&#45;LEMMAS</title>
<path fill="none" stroke="black" d="M398.892,-147.916C359.027,-136.842 301.532,-120.871 257.587,-108.664"/>
<polygon fill="black" stroke="black" points="258.434,-105.267 247.862,-105.963 256.56,-112.012 258.434,-105.267"/>
</g>
<!-- FLOAT&#45;LEMMAS&#45;&gt;VERIFICATION&#45;LEMMAS -->
<g id="edge33" class="edge"><title>FLOAT&#45;LEMMAS&#45;&gt;VERIFICATION&#45;LEMMAS</title>
<path fill="none" stroke="black" d="M196.254,-143.697C195.923,-135.983 195.526,-126.712 195.157,-118.112"/>
<polygon fill="black" stroke="black" points="198.653,-117.945 194.728,-108.104 191.66,-118.245 198.653,-117.945"/>
</g>
<!-- ASBTRACT&#45;SYNTAX&#45;&gt;X86&#45;CONFIG -->
<g id="edge15" class="edge"><title>ASBTRACT&#45;SYNTAX&#45;&gt;X86&#45;CONFIG</title>
<path fill="none" stroke="black" d="M1102.49,-215.697C1102.71,-207.983 1102.98,-198.712 1103.22,-190.112"/>
<polygon fill="black" stroke="black" points="1106.72,-190.2 1103.51,-180.104 1099.72,-190 1106.72,-190.2"/>
</g>
<!-- MINT&#45;WRAPPER&#45;SYNTAX&#45;&gt;MINT&#45;WRAPPER -->
<g id="edge29" class="edge"><title>MINT&#45;WRAPPER&#45;SYNTAX&#45;&gt;MINT&#45;WRAPPER</title>
<path fill="none" stroke="black" d="M580.578,-215.72C571.325,-195.982 553.779,-163.858 529.995,-144 510.549,-127.763 485.412,-115.852 462.711,-107.482"/>
<polygon fill="black" stroke="black" points="463.749,-104.137 453.155,-104.109 461.42,-110.738 463.749,-104.137"/>
</g>
<!-- MINT&#45;WRAPPER&#45;SYNTAX&#45;&gt;MINT&#45;LEMMAS -->
<g id="edge35" class="edge"><title>MINT&#45;WRAPPER&#45;SYNTAX&#45;&gt;MINT&#45;LEMMAS</title>
<path fill="none" stroke="black" d="M554.703,-216.588C534.423,-206.591 508.361,-193.744 486.84,-183.135"/>
<polygon fill="black" stroke="black" points="488.134,-179.871 477.617,-178.588 485.039,-186.149 488.134,-179.871"/>
</g>
<!-- MINT&#45;WRAPPER&#45;SYNTAX&#45;&gt;X86&#45;CONFIG -->
<g id="edge20" class="edge"><title>MINT&#45;WRAPPER&#45;SYNTAX&#45;&gt;X86&#45;CONFIG</title>
<path fill="none" stroke="black" d="M672.624,-221.519C775.279,-207.593 946.088,-184.421 1038.98,-171.819"/>
<polygon fill="black" stroke="black" points="1039.66,-175.26 1049.1,-170.448 1038.72,-168.324 1039.66,-175.26"/>
</g>
<!-- FLAG&#45;CHECKS&#45;SYNTAX&#45;&gt;INSTRUCTIONS&#45;SEMANTICS -->
<g id="edge42" class="edge"><title>FLAG&#45;CHECKS&#45;SYNTAX&#45;&gt;INSTRUCTIONS&#45;SEMANTICS</title>
<path fill="none" stroke="black" d="M396.287,-218.241C433.751,-207.781 485.016,-193.298 529.995,-180 612.567,-155.588 707.959,-125.925 765.851,-107.76"/>
<polygon fill="black" stroke="black" points="767.021,-111.061 775.513,-104.726 764.923,-104.383 767.021,-111.061"/>
</g>
<!-- FLAG&#45;CHECKS&#45;SYNTAX&#45;&gt;FLAG&#45;CHECKS -->
<g id="edge39" class="edge"><title>FLAG&#45;CHECKS&#45;SYNTAX&#45;&gt;FLAG&#45;CHECKS</title>
<path fill="none" stroke="black" d="M341.667,-215.811C341.121,-195.854 343.466,-163.226 361.995,-144 367.302,-138.494 450.679,-118.58 510.753,-104.796"/>
<polygon fill="black" stroke="black" points="511.585,-108.196 520.552,-102.554 510.024,-101.372 511.585,-108.196"/>
</g>
<!-- MEMORY&#45;SYNTAX&#45;&gt;X86&#45;CONFIG -->
<g id="edge18" class="edge"><title>MEMORY&#45;SYNTAX&#45;&gt;X86&#45;CONFIG</title>
<path fill="none" stroke="black" d="M1262.37,-218.155C1229.96,-206.868 1185.37,-191.339 1151.76,-179.634"/>
<polygon fill="black" stroke="black" points="1152.74,-176.271 1142.15,-176.287 1150.44,-182.882 1152.74,-176.271"/>
</g>
<!-- INIT&#45;SYNTAX -->
<g id="node27" class="node"><title>INIT&#45;SYNTAX</title>
<ellipse fill="none" stroke="black" cx="789.995" cy="-234" rx="66.8882" ry="18"/>
<text text-anchor="middle" x="789.995" y="-230.3" font-family="Times,serif" font-size="14.00">INIT&#45;SYNTAX</text>
</g>
<!-- INIT&#45;SYNTAX&#45;&gt;X86&#45;CONFIG -->
<g id="edge19" class="edge"><title>INIT&#45;SYNTAX&#45;&gt;X86&#45;CONFIG</title>
<path fill="none" stroke="black" d="M839.869,-221.837C848.577,-219.89 857.55,-217.885 865.995,-216 927.71,-202.226 998.435,-186.482 1046.64,-175.755"/>
<polygon fill="black" stroke="black" points="1047.58,-179.134 1056.58,-173.545 1046.06,-172.301 1047.58,-179.134"/>
</g>
<!-- X86&#45;MEMORY&#45;&gt;X86_SEMANTICS -->
<g id="edge49" class="edge"><title>X86&#45;MEMORY&#45;&gt;X86_SEMANTICS</title>
<path fill="none" stroke="black" d="M1617.44,-77.3264C1607.72,-75.3224 1597.57,-73.4288 1588,-72 1397.25,-43.5345 1171.42,-29.1246 1049.59,-22.9215"/>
<polygon fill="black" stroke="black" points="1049.73,-19.4241 1039.57,-22.4177 1049.38,-26.4153 1049.73,-19.4241"/>
</g>
<!-- X86&#45;CONFIG&#45;&gt;INSTRUCTIONS&#45;SEMANTICS -->
<g id="edge41" class="edge"><title>X86&#45;CONFIG&#45;&gt;INSTRUCTIONS&#45;SEMANTICS</title>
<path fill="none" stroke="black" d="M1058.21,-149.753C1010.31,-137.99 934.819,-119.448 881.471,-106.345"/>
<polygon fill="black" stroke="black" points="881.991,-102.869 871.445,-103.882 880.322,-109.667 881.991,-102.869"/>
</g>
<!-- X86&#45;CONFIG&#45;&gt;LOADER -->
<g id="edge30" class="edge"><title>X86&#45;CONFIG&#45;&gt;LOADER</title>
<path fill="none" stroke="black" d="M1148.42,-149.312C1187.81,-138.839 1246.87,-122.88 1298,-108 1301.36,-107.021 1304.83,-105.991 1308.33,-104.942"/>
<polygon fill="black" stroke="black" points="1309.58,-108.219 1318.13,-101.966 1307.55,-101.521 1309.58,-108.219"/>
</g>
<!-- X86&#45;CONFIG&#45;&gt;FETCH&#45;EXECUTE -->
<g id="edge31" class="edge"><title>X86&#45;CONFIG&#45;&gt;FETCH&#45;EXECUTE</title>
<path fill="none" stroke="black" d="M1155.94,-152.172C1216.5,-141.829 1319.57,-124.058 1408,-108 1414.62,-106.797 1421.51,-105.528 1428.4,-104.246"/>
<polygon fill="black" stroke="black" points="1429.28,-107.642 1438.47,-102.366 1428,-100.761 1429.28,-107.642"/>
</g>
<!-- X86&#45;CONFIG&#45;&gt;ABSTRACT&#45;SEMANTICS -->
<g id="edge22" class="edge"><title>X86&#45;CONFIG&#45;&gt;ABSTRACT&#45;SEMANTICS</title>
<path fill="none" stroke="black" d="M1104,-143.697C1104,-135.983 1104,-126.712 1104,-118.112"/>
<polygon fill="black" stroke="black" points="1107.5,-118.104 1104,-108.104 1100.5,-118.104 1107.5,-118.104"/>
</g>
<!-- X86&#45;CONFIG&#45;&gt;FLAG&#45;CHECKS -->
<g id="edge40" class="edge"><title>X86&#45;CONFIG&#45;&gt;FLAG&#45;CHECKS</title>
<path fill="none" stroke="black" d="M1045.74,-155.843C959.58,-147.833 793.241,-130.91 652.995,-108 646.76,-106.981 640.277,-105.811 633.816,-104.572"/>
<polygon fill="black" stroke="black" points="634.207,-101.081 623.719,-102.578 632.851,-107.949 634.207,-101.081"/>
</g>
<!-- X86&#45;CONFIG&#45;&gt;INIT -->
<g id="edge21" class="edge"><title>X86&#45;CONFIG&#45;&gt;INIT</title>
<path fill="none" stroke="black" d="M1136.62,-146.593C1160.56,-135.992 1193.84,-121.191 1223,-108 1224.78,-107.191 1226.62,-106.358 1228.47,-105.516"/>
<polygon fill="black" stroke="black" points="1230.07,-108.631 1237.71,-101.29 1227.16,-102.265 1230.07,-108.631"/>
</g>
<!-- X86&#45;CONFIG&#45;&gt;X86&#45;MEMORY -->
<g id="edge6" class="edge"><title>X86&#45;CONFIG&#45;&gt;X86&#45;MEMORY</title>
<path fill="none" stroke="black" d="M1163.12,-156.499C1254.58,-149.093 1435.71,-132.656 1588,-108 1594.18,-106.999 1600.6,-105.831 1607,-104.584"/>
<polygon fill="black" stroke="black" points="1607.88,-107.977 1616.99,-102.572 1606.5,-101.115 1607.88,-107.977"/>
</g>
</g>
</svg>
